# xmcd
#
# Track frame offsets:
#	150
#	17055
#	38160
#	55527
#	71180
#	86942
#	109392
#	129535
#	143782
#	158167
#	174930
#
# Disc length: 2576 seconds
#
# Revision: 0
# Processed by: cddbd v1.5PL3 Copyright (c) Steve Scherf et al.
# Submitted via: dBpowerAMP V4.0
#
DISCID=950a0e0b
DTITLE=Arthur Adams - Soul of the Blues
DYEAR=1900
DGENRE=Blues
TTITLE0=Twenty Years Gone
TTITLE1=Good Night In The City
TTITLE2=Soul of the Blues
TTITLE3=Gonna Catch You Tonight
TTITLE4=Lovin' You Big Time
TTITLE5=If I Did Not Have You
TTITLE6=Thank You Pretty Baby
TTITLE7=You Help My Soul
TTITLE8=Thumbs Up
TTITLE9=Look For Me
TTITLE10=I Like The Party Life
EXTD=
EXTT0=
EXTT1=
EXTT2=
EXTT3=
EXTT4=
EXTT5=
EXTT6=
EXTT7=
EXTT8=
EXTT9=
EXTT10=
PLAYORDER=
